<svg xmlns="http://www.w3.org/2000/svg" viewBox="0 0 334.12 113.51"><defs><style>.cls-1{fill:#fff;}.cls-2{fill:#1ab6db;}.cls-3{fill:#ff008c;}</style></defs><g id="Layer_2" data-name="Layer 2"><g id="Layer_1-2" data-name="Layer 1"><g id="log"><rect class="cls-1" width="166.12" height="2.01"/><rect class="cls-2" x="88" y="111.49" width="51.9" height="2.01"/><rect class="cls-2" x="258.25" y="82.09" width="75.87" height="2.01"/><path class="cls-2" d="M147.67,82.26a11,11,0,0,1-4.56-3.77l4.53-4.65a7.57,7.57,0,0,0,6.3,3.47q4.83,0,4.83-5.77l0-25.34h7.44V70.89q0,6.36-3.06,9.51t-9,3.15a15.51,15.51,0,0,1-6.45-1.29"/><path class="cls-2" d="M187.83,79.55q-4.08-4-4.07-11V49.28h7.42v19c0,2.91.69,5.12,2.06,6.66a7.59,7.59,0,0,0,5.95,2.29A7.43,7.43,0,0,0,205.05,75c1.36-1.51,2-3.74,2-6.68v-19h7.3V68.54q0,7.06-4,11t-11.25,4q-7.24,0-11.3-4"/><polygon class="cls-2" points="263.35 83.55 263.3 62.83 252.99 79.78 249.63 79.78 239.33 63.35 239.33 83.55 232.26 83.55 232.26 49.23 238.62 49.23 251.4 70.95 264 49.23 270.36 49.23 270.42 83.55 263.35 83.55"/><path class="cls-2" d="M313.87,53.08A10.86,10.86,0,0,1,317.82,62a10.91,10.91,0,0,1-4,9q-4,3.24-10.75,3.24H296v9.36h-7.42V49.87h14.54q6.84,0,10.78,3.21m-5.5,13.51a5.56,5.56,0,0,0,2-4.59,5.51,5.51,0,0,0-2-4.57,9.31,9.31,0,0,0-5.81-1.56H296V68.18h6.59a9.12,9.12,0,0,0,5.81-1.59"/><path class="cls-1" d="M88.4,99.84h3.33a2.68,2.68,0,0,1,0,5.35H90.36v2.4h-2Zm2.92,3.73a1,1,0,0,0,1-1.06.93.93,0,0,0-1-1h-1v2.1Z"/><path class="cls-1" d="M101.75,99.84h2.79a4.26,4.26,0,0,1,1.56.19,2.24,2.24,0,0,1,1.48,2.25,2.35,2.35,0,0,1-1.2,2.11v0a4.4,4.4,0,0,1,.3.47l1.56,2.71h-2.18L104.63,105h-.92v2.61h-2Zm2.82,3.51a.9.9,0,0,0,1-.95c0-.58-.22-.93-1.21-.93h-.66v1.88Z"/><path class="cls-1" d="M119.2,99.71a4,4,0,0,1,4.19,4,4.19,4.19,0,0,1-8.38,0,4,4,0,0,1,4.19-4m0,6.28a2.22,2.22,0,0,0,2.16-2.32,2.16,2.16,0,1,0-4.32,0A2.22,2.22,0,0,0,119.2,106"/><path class="cls-1" d="M134.72,99.71a4.2,4.2,0,0,1,3,1.1l-.9,1.43a3.43,3.43,0,0,0-2-.79,2.12,2.12,0,0,0-2.26,2.21,2.23,2.23,0,0,0,2.26,2.33,3.32,3.32,0,0,0,2.13-1l1,1.39a4.45,4.45,0,0,1-3.23,1.3,4,4,0,0,1-4.2-4,4,4,0,0,1,4.2-4"/><polygon class="cls-1" points="145.35 99.84 150.37 99.84 150.37 101.47 147.31 101.47 147.31 102.88 149.75 102.88 149.75 104.5 147.31 104.5 147.31 105.96 150.53 105.96 150.53 107.59 145.35 107.59 145.35 99.84"/><path class="cls-1" d="M158.73,105.17a3.38,3.38,0,0,0,1.91.8c.41,0,.84-.15.84-.61,0-.92-3.6-.89-3.6-3.27,0-1.43,1.24-2.37,2.83-2.37a3.74,3.74,0,0,1,2.58.87l-.83,1.55a3.13,3.13,0,0,0-1.77-.68c-.41,0-.85.17-.85.6,0,1,3.6.81,3.6,3.25a2.52,2.52,0,0,1-2.82,2.41,4.18,4.18,0,0,1-2.92-1.11Z"/><path class="cls-1" d="M171.51,105.17a3.38,3.38,0,0,0,1.92.8c.4,0,.84-.15.84-.61,0-.92-3.61-.89-3.61-3.27,0-1.43,1.25-2.37,2.84-2.37a3.7,3.7,0,0,1,2.57.87l-.82,1.55a3.13,3.13,0,0,0-1.77-.68c-.41,0-.86.17-.86.6,0,1,3.61.81,3.61,3.25a2.52,2.52,0,0,1-2.82,2.41,4.18,4.18,0,0,1-2.92-1.11Z"/><path class="cls-1" d="M196.11,99.71a4.23,4.23,0,0,1,3,1.1l-.91,1.43a3.39,3.39,0,0,0-2-.79,2.13,2.13,0,0,0-2.27,2.21A2.24,2.24,0,0,0,196.2,106a3.28,3.28,0,0,0,2.12-1l1,1.39a4.44,4.44,0,0,1-3.22,1.3,4,4,0,0,1-4.2-4,4,4,0,0,1,4.2-4"/><path class="cls-1" d="M210.29,99.71a4,4,0,0,1,4.19,4,4.19,4.19,0,0,1-8.37,0,4,4,0,0,1,4.18-4m0,6.28a2.22,2.22,0,0,0,2.17-2.32,2.17,2.17,0,1,0-4.33,0,2.22,2.22,0,0,0,2.16,2.32"/><path class="cls-1" d="M222.14,99.84h2l2.22,3.62a12.17,12.17,0,0,1,.67,1.32h0s-.09-.83-.09-1.32V99.84h2v7.75h-2L224.71,104a13.12,13.12,0,0,1-.68-1.32h0s.09.83.09,1.32v3.61h-2Z"/><path class="cls-1" d="M237.52,105.17a3.38,3.38,0,0,0,1.91.8c.41,0,.85-.15.85-.61,0-.92-3.61-.89-3.61-3.27,0-1.43,1.24-2.37,2.83-2.37a3.71,3.71,0,0,1,2.58.87l-.83,1.55a3.13,3.13,0,0,0-1.77-.68c-.4,0-.85.17-.85.6,0,1,3.6.81,3.6,3.25a2.51,2.51,0,0,1-2.82,2.41,4.18,4.18,0,0,1-2.92-1.11Z"/><path class="cls-1" d="M249.76,99.84h2v4.9a1.4,1.4,0,0,0,2.78,0v-4.9h2v4.9c0,1.74-1.32,3-3.34,3s-3.36-1.24-3.36-3Z"/><polygon class="cls-1" points="264.53 99.84 266.5 99.84 266.5 105.96 269.77 105.96 269.77 107.59 264.53 107.59 264.53 99.84"/><polygon class="cls-1" points="277.86 101.47 275.43 101.47 275.43 99.84 282.25 99.84 282.25 101.47 279.82 101.47 279.82 107.59 277.86 107.59 277.86 101.47"/><rect class="cls-1" x="289.49" y="99.84" width="1.96" height="7.74"/><path class="cls-1" d="M299.58,99.84h2l2.22,3.62a12.17,12.17,0,0,1,.67,1.32h0s-.1-.83-.1-1.32V99.84h2v7.75h-2L302.15,104a13.12,13.12,0,0,1-.68-1.32h0s.09.83.09,1.32v3.61h-2Z"/><path class="cls-1" d="M318.2,99.71a4.5,4.5,0,0,1,3.08,1l-.94,1.42a3.26,3.26,0,0,0-1.95-.71,2.1,2.1,0,0,0-2.36,2.19,2.23,2.23,0,0,0,2.3,2.35,2.76,2.76,0,0,0,1.62-.57v-.59h-1.13v-1.62h2.87v4.38h-1.64v-.22c0-.16,0-.32,0-.32h0a3.38,3.38,0,0,1-2.11.67,3.86,3.86,0,0,1-3.93-4,4,4,0,0,1,4.2-4"/><polygon class="cls-1" points="13.38 16.17 20.8 16.17 20.8 29.71 36.99 29.71 36.99 16.17 44.41 16.17 44.41 49.85 36.99 49.85 36.99 35.84 20.8 35.84 20.8 49.85 13.38 49.85 13.38 16.17"/><rect class="cls-1" x="62.52" y="16.17" width="7.42" height="33.69"/><path class="cls-1" d="M110.94,32.13h7V45.56a20,20,0,0,1-6.15,3.15,23.7,23.7,0,0,1-7.27,1.14,20.35,20.35,0,0,1-9.69-2.26,16.82,16.82,0,0,1-9.1-15.17,16.86,16.86,0,0,1,2.42-8.92,16.67,16.67,0,0,1,6.65-6.21,20.16,20.16,0,0,1,9.54-2.24q9.42,0,14.13,5.65l-4.83,4.66a12.56,12.56,0,0,0-15-2.6,10.22,10.22,0,0,0-4,3.95,11.35,11.35,0,0,0-1.44,5.71,11.3,11.3,0,0,0,1.47,5.74,10.25,10.25,0,0,0,4.07,4,12.21,12.21,0,0,0,5.94,1.41,13.83,13.83,0,0,0,6.25-1.41Z"/><polygon class="cls-1" points="135.15 0.38 142.57 0.38 142.57 29.71 158.76 29.71 158.76 0.38 166.18 0.38 166.18 46.05 158.76 47.84 158.76 35.84 142.57 35.84 142.57 51.3 135.15 53.34 135.15 0.38"/><rect class="cls-3" x="102.31" y="43.8" width="135.85" height="2.01" transform="translate(-5.79 43.37) rotate(-14.28)"/></g></g></g></svg>